<?xml version="1.0" encoding="UTF-8" standalone="no"?>
<!-- Created with Inkscape (http://www.inkscape.org/) -->

<svg
   xmlns:dc="http://purl.org/dc/elements/1.1/"
   xmlns:cc="http://creativecommons.org/ns#"
   xmlns:rdf="http://www.w3.org/1999/02/22-rdf-syntax-ns#"
   xmlns:svg="http://www.w3.org/2000/svg"
   xmlns="http://www.w3.org/2000/svg"
   xmlns:sodipodi="http://sodipodi.sourceforge.net/DTD/sodipodi-0.dtd"
   xmlns:inkscape="http://www.inkscape.org/namespaces/inkscape"
   width="300"
   height="300"
   id="svg2"
   sodipodi:version="0.32"
   inkscape:version="0.48.3.1 r9886"
   sodipodi:docname="logo_mio_final.svg"
   inkscape:output_extension="org.inkscape.output.svg.inkscape"
   version="1.1"
   inkscape:export-filename="/home/fabio/Web/fabiocicerchia.github.com/logo_mio_final.png"
   inkscape:export-xdpi="90"
   inkscape:export-ydpi="90">
  <defs
     id="defs4">
    <inkscape:perspective
       sodipodi:type="inkscape:persp3d"
       inkscape:vp_x="0 : 526.18109 : 1"
       inkscape:vp_y="0 : 1000 : 0"
       inkscape:vp_z="744.09448 : 526.18109 : 1"
       inkscape:persp3d-origin="372.04724 : 350.78739 : 1"
       id="perspective10" />
    <mask
       maskUnits="userSpaceOnUse"
       id="mask5025">
      <rect
         style="opacity:0.32851987;fill:#b97d00;fill-opacity:1;fill-rule:nonzero;stroke:#ffffff;stroke-width:0.02391576;stroke-linecap:round;stroke-linejoin:round;stroke-miterlimit:4;stroke-opacity:1;stroke-dasharray:none"
         id="rect5027"
         width="11.990962"
         height="16.780035"
         x="331.15591"
         y="238.77187" />
    </mask>
  </defs>
  <sodipodi:namedview
     id="base"
     pagecolor="#ffffff"
     bordercolor="#666666"
     borderopacity="1.0"
     inkscape:pageopacity="0.0"
     inkscape:pageshadow="2"
     inkscape:zoom="0.88037686"
     inkscape:cx="198.17167"
     inkscape:cy="106.82692"
     inkscape:document-units="px"
     inkscape:current-layer="layer1"
     showgrid="false"
     inkscape:window-width="1366"
     inkscape:window-height="744"
     inkscape:window-x="0"
     inkscape:window-y="24"
     inkscape:window-maximized="1" />
  <metadata
     id="metadata7">
    <rdf:RDF>
      <cc:Work
         rdf:about="">
        <dc:format>image/svg+xml</dc:format>
        <dc:type
           rdf:resource="http://purl.org/dc/dcmitype/StillImage" />
        <dc:title></dc:title>
      </cc:Work>
    </rdf:RDF>
  </metadata>
  <g
     inkscape:label="Livello 1"
     inkscape:groupmode="layer"
     id="layer1"
     transform="translate(0,-752.36218)">
    <g
       id="g3784"
       transform="matrix(1.0023115,0,0,1.0023115,-153.56734,44.361354)" />
    <rect
       style="fill:#ffffff;fill-opacity:1"
       id="rect2470"
       width="184.59706"
       height="217.64317"
       x="61.317928"
       y="796.30011" />
    <g
       id="g3604"
       transform="matrix(0.86982972,0,0,0.86982972,-371.9396,864.23582)">
      <path
         transform="translate(-24.12501,-64.66471)"
         id="path3606"
         d="m 630.48165,51.85461 -7.01479,8.716021 -8.99334,-6.655063 -4.41422,10.282375 -10.45474,-3.979561 -1.46889,11.091763 -11.14423,-1.011736 1.57383,11.07676 -11.00183,2.030996 4.50415,10.237409 -10.04254,4.923848 7.09724,8.648568 -8.34131,7.44947 9.16568,6.40773 -6.02552,9.428 10.55965,3.70226 -3.26008,10.70205 11.17422,0.71198 -0.25482,11.18169 10.94189,-2.32327 2.78043,10.83695 9.90765,-5.19365 5.59834,9.6903 8.13894,-7.68178 8.01157,7.82418 5.76322,-9.59289 9.81769,5.37351 2.9678,-10.79198 10.9044,2.52562 -0.0525,-11.18917 11.17419,-0.51713 -3.07271,-10.762 10.6271,-3.5074 -5.86064,-9.53291 9.2856,-6.24286 -8.21389,-7.59938 7.2546,-8.521171 -9.96011,-5.10369 4.69152,-10.154979 -10.97185,-2.225841 1.77618,-11.046797 -11.15921,0.81689 -1.27405,-11.121725 -10.52969,3.799674 -4.22685,-10.357303 -9.11324,6.490179 -6.86489,-8.835937 z m -0.69699,15.071302 c 25.08518,0 45.44626,19.835149 45.44626,44.277118 0,24.44195 -20.36108,44.27713 -45.44626,44.27713 -25.08518,-3e-5 -45.44624,-19.83518 -45.44624,-44.27713 0,-24.441969 20.36106,-44.277118 45.44624,-44.277118 z"
         style="fill:#006680;fill-opacity:1;stroke:none"
         inkscape:connector-curvature="0" />
      <path
         sodipodi:type="arc"
         style="opacity:0.5;fill:#ffffff;fill-opacity:1;fill-rule:nonzero;stroke:#ffffff;stroke-width:1.5;stroke-linecap:round;stroke-linejoin:round;stroke-miterlimit:4;stroke-opacity:1;stroke-dasharray:none"
         id="path3608"
         sodipodi:cx="621"
         sodipodi:cy="73.862183"
         sodipodi:rx="134"
         sodipodi:ry="59.5"
         d="m 755,73.862183 c 0,32.860947 -59.99384,59.499997 -134,59.499997 -74.00616,0 -134,-26.63905 -134,-59.499997 0,-32.860943 59.99384,-59.5 134,-59.5 74.00616,0 134,26.639057 134,59.5 z"
         transform="matrix(0.5529818,0,0,1.2667248,262.94776,-106.21286)" />
      <g
         id="g3610">
        <g
           id="g3612"
           transform="translate(-31.44668,-61.840491)">
          <path
             style="font-size:37.55023956px;font-style:normal;font-weight:normal;fill:#7fb2bf;fill-opacity:1;stroke:#ffffff;stroke-width:0;stroke-linecap:butt;stroke-linejoin:miter;stroke-miterlimit:4;stroke-opacity:1;stroke-dasharray:none;font-family:Bitstream Vera Sans"
             d="m 632.65773,116.9611 c -0.16899,1.03241 -0.2553,1.98899 -0.25755,3.10374 l 14.17725,0 c -0.20697,-1.03854 -0.26057,-2.06895 -0.1881,-3.10374 l -13.7316,0 z"
             id="path3614"
             sodipodi:nodetypes="ccccc"
             inkscape:connector-curvature="0" />
          <path
             style="font-size:37.55023956px;font-style:normal;font-weight:normal;fill:#7fb2bf;fill-opacity:1;stroke:#ffffff;stroke-width:0;stroke-linecap:butt;stroke-linejoin:miter;stroke-miterlimit:4;stroke-opacity:1;stroke-dasharray:none;font-family:Bitstream Vera Sans"
             d="m 634.09004,109.90721 c -0.56442,1.17956 -0.76181,2.01754 -0.86799,3.10371 l 13.54349,0 c 0.1263,-1.01579 0.20933,-2.11461 0.38156,-3.10371 l -13.05706,0 z"
             id="path3616"
             sodipodi:nodetypes="ccccc"
             inkscape:connector-curvature="0" />
          <path
             style="font-size:37.55023956px;font-style:normal;font-weight:normal;fill:#7fb2bf;fill-opacity:1;stroke:#ffffff;stroke-width:0;stroke-linecap:butt;stroke-linejoin:miter;stroke-miterlimit:4;stroke-opacity:1;stroke-dasharray:none;font-family:Bitstream Vera Sans"
             d="m 601.90274,116.86705 -0.47027,3.10373 13.07323,0 0.47026,-3.10373 -13.07322,0 z"
             id="path3618"
             inkscape:connector-curvature="0" />
          <path
             style="font-size:37.55023956px;font-style:normal;font-weight:normal;fill:#7fb2bf;fill-opacity:1;stroke:#ffffff;stroke-width:0;stroke-linecap:butt;stroke-linejoin:miter;stroke-miterlimit:4;stroke-opacity:1;stroke-dasharray:none;font-family:Bitstream Vera Sans"
             d="m 602.93731,109.90721 -0.37621,2.91561 12.97918,0 0.37621,-2.91561 -12.97918,0 z"
             id="path3620"
             inkscape:connector-curvature="0" />
          <path
             style="font-size:37.55023956px;font-style:normal;font-weight:normal;fill:#000000;fill-opacity:1;stroke:#ffffff;stroke-width:5.25598574;stroke-linecap:butt;stroke-linejoin:miter;stroke-miterlimit:4;stroke-opacity:1;stroke-dasharray:none;font-family:Bitstream Vera Sans"
             d="m 647.9882,105.95703 c 2.28236,-7.97027 6.66966,-13.740546 11.94461,-15.236428 l 7.242,11.568408 c 5.76369,-0.22606 9.4052,-3.75603 9.4052,-8.276571 0,-5.537675 -4.39088,-9.123044 -12.41486,-9.123044 -9.04106,0 -18.89691,4.918048 -24.54758,12.602962 -1.95956,2.672123 -3.2331,5.575023 -4.42044,8.464673 l 12.79107,0 z"
             id="path3622"
             inkscape:connector-curvature="0" />
          <path
             style="font-size:37.55023956px;font-style:normal;font-weight:normal;fill:#000000;fill-opacity:1;stroke:#ffffff;stroke-width:5.25598574;stroke-linecap:butt;stroke-linejoin:miter;stroke-miterlimit:4;stroke-opacity:1;stroke-dasharray:none;font-family:Bitstream Vera Sans"
             d="m 647.04767,124.01502 -14.20183,0 c 1.49725,10.73438 8.31242,17.68177 18.43419,17.68177 7.00682,2e-5 13.47004,-5.48908 21.60704,-12.72194 l 2,-4.67768 c -6.44177,5.65063 -12.54004,8.37063 -17.39962,8.37063 -5.22701,0 -8.91926,-3.0432 -10.43978,-8.65278 z"
             id="path3624"
             sodipodi:nodetypes="ccsccsc"
             inkscape:connector-curvature="0" />
          <path
             style="font-size:37.55023956px;font-style:normal;font-weight:normal;fill:#000000;fill-opacity:1;stroke:#ffffff;stroke-width:5.25598574;stroke-linecap:butt;stroke-linejoin:miter;stroke-miterlimit:4;stroke-opacity:1;stroke-dasharray:none;font-family:Bitstream Vera Sans"
             d="m 600.8609,123.97249 -0.94052,7.05389 c -1.9019,12.74684 -3.74589,21.67728 -7.05389,26.0524 l -12.03865,-6.48958 c -2.93838,1.24313 -4.51449,3.87055 -4.51449,7.14795 0,3.95548 3.28576,6.95983 7.80631,6.95983 7.00681,5e-5 15.19018,-5.53545 21.63195,-15.70667 3.18231,-5.02468 5.17801,-11.17466 6.6777,-17.96393 0.44003,-2.35135 0.99396,-4.7088 1.50482,-7.05389 l -13.07323,0 z"
             id="path3626"
             sodipodi:nodetypes="ccccsssccc"
             inkscape:connector-curvature="0" />
          <path
             style="font-size:37.55023956px;font-style:normal;font-weight:normal;fill:#000000;fill-opacity:1;stroke:#ffffff;stroke-width:5.25598574;stroke-linecap:butt;stroke-linejoin:miter;stroke-miterlimit:4;stroke-opacity:1;stroke-dasharray:none;font-family:Bitstream Vera Sans"
             d="m 633.22205,57.708368 c -11.7534,0 -23.54642,11.017843 -26.71077,28.873949 l -4.84088,5.856128 -4.09405,2.890706 7.52415,-0.84645 -1.59889,11.474329 12.97917,0 1.59889,-11.474329 16.45909,0 0,-6.677702 -15.42451,0 c 2.26028,-12.544516 5.09325,-20.78022 8.37062,-24.735663 l 9.49926,9.969493 c 4.52054,-1.017065 7.24199,-4.13374 7.24199,-7.524152 0,-4.181505 -4.44926,-7.806309 -11.00407,-7.806309 z"
             id="path3628"
             sodipodi:nodetypes="cccccccccccccsc"
             inkscape:connector-curvature="0" />
          <path
             id="path3630"
             d="m 647.9882,105.95703 c 2.28236,-7.97027 6.66966,-13.740546 11.94461,-15.236428 l 7.242,11.568408 c 5.76369,-0.22606 9.4052,-3.75603 9.4052,-8.276571 0,-5.537675 -4.39088,-9.123044 -12.41486,-9.123044 -9.04106,0 -18.89691,4.918048 -24.54758,12.602962 -1.95956,2.672123 -3.2331,5.575023 -4.42044,8.464673 l 12.79107,0 z"
             style="font-size:37.55023956px;font-style:normal;font-weight:normal;fill:#2c2c2c;fill-opacity:1;stroke:#ffffff;stroke-width:0;stroke-linecap:butt;stroke-linejoin:miter;stroke-miterlimit:4;stroke-opacity:1;stroke-dasharray:none;font-family:Bitstream Vera Sans"
             inkscape:connector-curvature="0" />
          <path
             id="path3632"
             d="m 647.04767,124.01502 -14.20183,0 c 1.49725,10.73438 8.31242,17.68177 18.43419,17.68177 7.00682,2e-5 15.47004,-3.48908 23.60704,-10.72194 l 0,-6.67768 c -6.44177,5.65063 -12.54004,8.37063 -17.39962,8.37063 -5.22701,0 -8.91926,-3.0432 -10.43978,-8.65278 z"
             style="font-size:37.55023956px;font-style:normal;font-weight:normal;fill:#2c2c2c;fill-opacity:1;stroke:#ffffff;stroke-width:0;stroke-linecap:butt;stroke-linejoin:miter;stroke-miterlimit:4;stroke-opacity:1;stroke-dasharray:none;font-family:Bitstream Vera Sans"
             inkscape:connector-curvature="0" />
          <path
             sodipodi:nodetypes="ccccsssccc"
             id="path3634"
             d="m 600.8609,123.97249 -0.94052,7.05389 c -1.9019,12.74684 -3.74589,21.67728 -7.05389,26.0524 l -12.03865,-6.48958 c -2.93838,1.24313 -4.51449,3.87055 -4.51449,7.14795 0,3.95548 3.28576,6.95983 7.80631,6.95983 7.00681,5e-5 15.19018,-5.53545 21.63195,-15.70667 3.18231,-5.02468 5.17801,-11.17466 6.6777,-17.96393 0.44003,-2.35135 0.99396,-4.7088 1.50482,-7.05389 l -13.07323,0 z"
             style="font-size:37.55023956px;font-style:normal;font-weight:normal;fill:#2c2c2c;fill-opacity:1;stroke:#ffffff;stroke-width:0;stroke-linecap:butt;stroke-linejoin:miter;stroke-miterlimit:4;stroke-opacity:1;stroke-dasharray:none;font-family:Bitstream Vera Sans"
             inkscape:connector-curvature="0" />
          <path
             id="path3636"
             d="m 633.22205,57.708368 c -11.7534,0 -23.54642,11.017843 -26.71077,28.873949 l -8.84088,3.856128 -0.094,4.890706 7.52415,-0.84645 -1.59889,11.474329 12.97917,0 1.59889,-11.474329 16.45909,0 0,-6.677702 -15.42451,0 c 2.26028,-12.544516 5.09325,-20.78022 8.37062,-24.735663 l 9.49926,9.969493 c 4.52054,-1.017065 7.24199,-4.13374 7.24199,-7.524152 0,-4.181505 -4.44926,-7.806309 -11.00407,-7.806309 z"
             style="font-size:37.55023956px;font-style:normal;font-weight:normal;fill:#2c2c2c;fill-opacity:1;stroke:#ffffff;stroke-width:0;stroke-linecap:butt;stroke-linejoin:miter;stroke-miterlimit:4;stroke-opacity:1;stroke-dasharray:none;font-family:Bitstream Vera Sans"
             sodipodi:nodetypes="cccccccccccccsc"
             inkscape:connector-curvature="0" />
        </g>
        <path
           transform="matrix(-1.3840282,-5.9652222e-8,5.9652222e-8,-1.3840282,1444.1462,110.10237)"
           style="font-size:12px;font-style:normal;font-weight:normal;fill:#2c2c2c;fill-opacity:1;stroke:none;font-family:Bitstream Vera Sans"
           d="m 657.80708,49.358749 c 0.049,-0.642665 -0.15146,-1.172158 -0.60154,-1.58848 -0.45031,-0.413406 -1.08882,-0.651661 -1.91551,-0.714767 -0.82378,-0.06288 -1.48958,0.0758 -1.99742,0.416068 -0.50807,0.343182 -0.78663,0.836104 -0.83569,1.478768 -0.0491,0.642658 0.15168,1.169229 0.60221,1.579717 0.45031,0.413398 1.08735,0.651542 1.91113,0.714432 0.82669,0.0631 1.49396,-0.07548 2.00181,-0.415734 0.50761,-0.337346 0.78595,-0.827347 0.83501,-1.470004 m -5.91805,0.795509 -1.36407,1.068218 0.0816,-1.069155 1.12117,-0.888431 c 0.002,-0.09685 0.003,-0.171674 0.004,-0.224475 8.7e-4,-0.04989 0.003,-0.0982 0.007,-0.144933 0.0702,-0.920177 0.43316,-1.632902 1.08876,-2.138176 0.65829,-0.502133 1.50303,-0.71384 2.53421,-0.635123 1.03409,0.07894 1.83691,0.416414 2.40844,1.012427 0.57422,0.599153 0.82621,1.358818 0.75597,2.278995 -0.07,0.917249 -0.43418,1.626941 -1.09247,2.129078 -0.65537,0.502349 -1.50011,0.714056 -2.53421,0.635124 -0.75951,-0.05799 -1.39776,-0.260963 -1.91477,-0.608935 -0.51723,-0.345063 -0.8823,-0.816601 -1.09521,-1.414614 m 5.23157,7.724129 -0.25319,0.855404 -3.82193,-1.131268 c -0.67421,-0.199564 -1.19638,-0.221215 -1.56649,-0.06495 -0.36731,0.15709 -0.63204,0.509534 -0.79418,1.057333 -0.16131,0.544983 -0.13066,0.983331 0.092,1.315045 0.22543,0.332536 0.67526,0.598587 1.34947,0.798155 l 3.82193,1.131268 -0.2532,0.855404 -3.92727,-1.162449 c -0.82029,-0.242807 -1.37944,-0.629822 -1.67744,-1.161047 -0.29884,-0.528426 -0.33101,-1.188734 -0.0965,-1.980927 0.23532,-0.795009 0.62255,-1.334232 1.16169,-1.617671 0.53831,-0.280633 1.21761,-0.299548 2.0379,-0.05675 l 3.92727,1.16245 m -5.48324,11.756276 -2.31484,-2.598556 -1.13495,2.12897 3.44979,0.469586 m 1.00738,-0.03069 -0.47342,0.88804 -6.96601,-0.879963 0.43414,-0.81436 1.76639,0.264384 1.3913,-2.60983 -1.20409,-1.319174 0.44034,-0.825993 4.61135,5.296896 m -4.51759,7.225554 -0.55337,0.69411 -4.54608,-3.624278 -1.99157,2.498107 -0.58415,-0.465704 2.54494,-3.192218 5.13023,4.089983 m -5.86862,6.57813 -0.64763,0.607107 -4.48718,-4.786691 0.64763,-0.607106 4.48718,4.78669 m -4.2049,3.69752 -4.57153,3.147512 -0.42366,-0.615329 1.91838,-1.320809 -3.29704,-4.788708 0.73478,-0.505895 3.29704,4.788709 1.91837,-1.320809 0.42366,0.615329 m -8.08466,5.122486 -0.8704,0.389601 -2.76294,-1.719488 -0.54617,3.200688 -0.8704,0.3896 0.71384,-4.084603 -1.27653,-2.851852 0.81424,-0.364465 1.27653,2.851852 3.52183,2.188667 m -20.10754,5.37629 -0.0953,-0.860459 c 0.35261,0.123052 0.68177,0.207441 0.98749,0.253166 0.30572,0.04571 0.5969,0.05325 0.87352,0.02261 0.48046,-0.05323 0.8414,-0.187535 1.08283,-0.40292 0.23851,-0.215073 0.33874,-0.494408 0.30067,-0.838004 -0.0319,-0.28828 -0.14202,-0.497155 -0.33027,-0.626625 -0.19084,-0.126245 -0.53295,-0.207726 -1.02632,-0.244445 l -0.54497,-0.05017 c -0.67195,-0.05232 -1.18129,-0.219912 -1.52803,-0.502788 -0.34931,-0.27965 -0.55332,-0.684453 -0.61203,-1.214412 -0.07,-0.631878 0.0895,-1.134429 0.47851,-1.507651 0.3861,-0.372903 0.98827,-0.604673 1.8065,-0.695313 0.30866,-0.03419 0.64157,-0.0357 0.99874,-0.0045 0.35426,0.0315 0.72532,0.09504 1.1132,0.190606 l 0.10064,0.908505 c -0.38042,-0.161245 -0.74807,-0.273794 -1.10296,-0.337646 -0.35489,-0.06385 -0.69831,-0.0774 -1.03027,-0.04062 -0.50375,0.0558 -0.88152,0.197868 -1.1333,0.426197 -0.25178,0.228327 -0.35735,0.525939 -0.31671,0.892837 0.0355,0.320304 0.16223,0.559758 0.38023,0.718363 0.2151,0.158922 0.55186,0.258681 1.01028,0.299278 l 0.54886,0.04532 c 0.6726,0.05813 1.17143,0.21068 1.49649,0.457645 0.32507,0.246957 0.51518,0.619403 0.57034,1.117338 0.0639,0.576546 -0.0882,1.053216 -0.45617,1.430012 -0.37089,0.377106 -0.91304,0.605176 -1.62645,0.684211 -0.30574,0.03386 -0.62038,0.04071 -0.9439,0.02055 -0.32352,-0.02017 -0.65739,-0.0672 -1.00161,-0.141068 m -8.53377,-0.490676 c 0.64197,0.05739 1.17403,-0.13623 1.59616,-0.580868 0.41921,-0.444908 0.66574,-1.080263 0.73957,-1.906067 0.0736,-0.822891 -0.0565,-1.490443 -0.3901,-2.002657 -0.33656,-0.512477 -0.82582,-0.797414 -1.46779,-0.854812 -0.64197,-0.0574 -1.1711,0.136486 -1.58741,0.581651 -0.41921,0.444902 -0.6656,1.078798 -0.73918,1.90169 -0.0738,0.825804 0.0561,1.494814 0.38971,2.007034 0.33073,0.51195 0.81707,0.796626 1.45904,0.854029 m -0.0642,0.71784 c -0.91626,-0.08193 -1.62117,-0.455268 -2.11472,-1.120019 -0.49379,-0.661843 -0.69452,-1.509256 -0.60216,-2.542241 0.0921,-1.030073 0.43997,-1.828437 1.0436,-2.395095 0.60339,-0.563741 1.36322,-0.80465 2.27948,-0.722728 0.91919,0.08218 1.62714,0.454324 2.12386,1.116424 0.4938,0.661838 0.69453,1.509251 0.60217,2.542242 -0.0924,1.032984 -0.44023,1.831348 -1.04361,2.395094 -0.60656,0.566392 -1.36943,0.8085 -2.28862,0.726323 m -8.42439,-1.546685 -0.85223,-0.248394 1.62686,-5.581713 -3.0672,-0.893972 0.20904,-0.717227 3.91943,1.142365 -1.8359,6.298941 m -8.51389,-2.964501 -0.79408,-0.406535 1.81639,-3.547907 c 0.32043,-0.625872 0.43796,-1.135097 0.3526,-1.527676 -0.0867,-0.389971 -0.3843,-0.715128 -0.89282,-0.975471 -0.50591,-0.259007 -0.9424,-0.309677 -1.30947,-0.152013 -0.36839,0.160275 -0.7128,0.553347 -1.03323,1.179217 l -1.81639,3.547907 -0.79407,-0.406535 1.86646,-3.645699 c 0.38985,-0.761476 0.8733,-1.2397 1.45035,-1.434676 0.57446,-0.196306 1.22938,-0.106213 1.96478,0.270281 0.73801,0.377832 1.19661,0.857821 1.37581,1.43997 0.1766,0.580815 0.07,1.25196 -0.31988,2.013437 l -1.86645,3.6457 m -8.61301,-4.91435 -4.36196,-3.43207 0.46196,-0.58712 1.83043,1.440219 3.59511,-4.569173 0.70109,0.551631 -3.59511,4.569174 1.83043,1.440219 -0.46195,0.58712 m -7.71849,-6.743854 -0.6078,-0.646978 4.78188,-4.492311 0.6078,0.646978 -4.78188,4.492311 m -5.28749,-7.571934 c 0.35692,0.536684 0.84087,0.830559 1.45184,0.881625 0.60937,0.04862 1.25923,-0.156624 1.9496,-0.61575 0.68793,-0.457504 1.12729,-0.976634 1.31808,-1.557393 0.18917,-0.583196 0.10529,-1.143136 -0.25163,-1.679823 -0.35691,-0.536681 -0.83924,-0.828116 -1.44697,-0.874307 -0.60936,-0.04862 -1.258,0.155816 -1.94594,0.613317 -0.69036,0.459129 -1.13094,0.97907 -1.32174,1.559827 -0.19241,0.578319 -0.11015,1.13582 0.24676,1.672504 m -0.60011,0.3991 c -0.50941,-0.765995 -0.65926,-1.549461 -0.44954,-2.3504 0.20729,-0.799313 0.74272,-1.486127 1.60629,-2.060443 0.86114,-0.572687 1.70157,-0.80088 2.5213,-0.68458 0.81729,0.117931 1.48065,0.559892 1.99007,1.325883 0.51104,0.768437 0.66373,1.553531 0.45806,2.355284 -0.20728,0.799316 -0.74271,1.486129 -1.60629,2.060444 -0.86357,0.574311 -1.704,0.802504 -2.5213,0.684579 -0.82135,-0.118746 -1.48755,-0.562335 -1.99859,-1.330767 m -4.14622,-7.637597 -0.43657,-1.112734 4.04703,-4.712903 -5.10957,2.004707 -0.31459,-0.801823 6.10776,-2.396339 0.43657,1.112733 -4.04703,4.712904 5.10957,-2.004707 0.31459,0.801823 -6.10776,2.396339 m -3.84721,-14.266941 0.85252,-0.150668 c -0.10004,0.359819 -0.163,0.693744 -0.18889,1.001775 -0.0259,0.308037 -0.0146,0.59909 0.0338,0.873161 0.0841,0.476023 0.24147,0.827541 0.47199,1.054556 0.23002,0.224132 0.51524,0.306115 0.85566,0.24595 0.28562,-0.05048 0.48695,-0.173824 0.604,-0.370042 0.11366,-0.198592 0.17289,-0.545244 0.17768,-1.039957 l 0.0149,-0.547072 c 0.009,-0.673926 0.14319,-1.193025 0.40309,-1.557297 0.25652,-0.36664 0.64731,-0.59636 1.17237,-0.689161 0.62604,-0.110638 1.13784,0.01609 1.5354,0.380188 0.39705,0.36122 0.66721,0.947167 0.81048,1.757842 0.054,0.30581 0.077,0.637931 0.069,0.996363 -0.009,0.355551 -0.048,0.729946 -0.11834,1.123186 l -0.90012,0.15908 c 0.13635,-0.390032 0.22493,-0.764185 0.26574,-1.122459 0.0408,-0.358272 0.0322,-0.701851 -0.026,-1.030741 -0.0882,-0.499098 -0.25437,-0.866907 -0.49847,-1.103427 -0.24411,-0.236513 -0.54792,-0.322649 -0.91143,-0.258409 -0.31734,0.05609 -0.54811,0.198028 -0.69231,0.425815 -0.14471,0.224909 -0.22252,0.567408 -0.23343,1.027498 l -0.01,0.550633 c -0.0146,0.674951 -0.13462,1.18259 -0.36008,1.52292 -0.22546,0.340331 -0.58485,0.55409 -1.07819,0.641278 -0.57122,0.100955 -1.05671,-0.02001 -1.45648,-0.362897 -0.40026,-0.345771 -0.66286,-0.872066 -0.78778,-1.578887 -0.0535,-0.30292 -0.0807,-0.616457 -0.0815,-0.940609 -7.5e-4,-0.324147 0.0246,-0.660353 0.0761,-1.008619 m 0.70064,-14.429178 3.06682,1.644862 0.33426,-2.38933 -3.40108,0.744468 m -0.93549,0.374985 0.13943,-0.996642 6.84419,-1.567366 -0.12786,0.913951 -1.74967,0.358704 -0.40976,2.928998 1.58407,0.82508 -0.12968,0.927008 -6.15072,-3.389733 m 1.47253,-7.522469 1.79394,-5.252384 0.70697,0.241465 -0.7528,2.204088 5.5019,1.879162 -0.28833,0.844207 -5.50191,-1.879162 -0.7528,2.204089 -0.70697,-0.241465 m 7.27219,-15.429479 0.53721,-0.706692 2.14106,1.627572 1.95203,-2.567881 -2.14107,-1.627572 0.5372,-0.706692 5.22323,3.970532 -0.53721,0.706692 -2.48741,-1.890856 -1.95203,2.56788 2.48742,1.890856 -0.53721,0.706692 -5.22322,-3.970531 m 9.34019,-9.1045553 1.24572,3.2494855 1.81479,-1.589708 -3.06051,-1.6597775 m -0.95308,-0.3277161 0.75699,-0.6631023 6.2041,3.2876773 -0.69418,0.608085 -1.5586,-0.8722469 -2.22469,1.9487673 0.65947,1.659862 -0.7041,0.616772 -2.43899,-6.5858144 m 6.86503,-5.25638037 1.03868,-0.59153886 5.24425,3.32982043 -2.71629,-4.7695216 0.74846,-0.426256 3.24694,5.7012777 -1.03868,0.5915388 -5.24426,-3.3298204 2.7163,4.7695216 -0.74846,0.426256 -3.24694,-5.70127767 m 10.90184,-4.45316683 1.53636,4.8652365 1.02249,-0.32288655 c 0.86325,-0.27259913 1.43288,-0.66753611 1.70887,-1.18481211 0.27878,-0.51815273 0.28496,-1.19907944 0.0185,-2.04278214 -0.26467,-0.8381058 -0.65946,-1.3878047 -1.18437,-1.6490985 -0.52301,-0.2649568 -1.21614,-0.2611381 -2.0794,0.011456 l -1.02249,0.3228866 m -1.06616,-0.4283247 1.73908,-0.5491719 c 1.21246,-0.382869 2.1821,-0.4110206 2.9089,-0.084455 0.72592,0.3237863 1.25826,1.0220666 1.59703,2.0948431 0.34052,1.0783739 0.30567,1.96037309 -0.10456,2.64600009 -0.41024,0.68563183 -1.2188,1.21900231 -2.42568,1.60011321 l -1.73908,0.5491718 -1.97569,-6.2565014"
           id="path3638"
           inkscape:connector-curvature="0" />
        <path
           sodipodi:type="arc"
           style="opacity:0.7;fill:none;stroke:none"
           id="path3640"
           sodipodi:cx="594"
           sodipodi:cy="43.362183"
           sodipodi:rx="46"
           sodipodi:ry="46"
           d="m 640,43.362183 c 0,25.405098 -20.5949,46 -46,46 -25.4051,0 -46,-20.594902 -46,-46 0,-25.405099 20.5949,-46.0000004 46,-46.0000004 25.4051,0 46,20.5949014 46,46.0000004 z"
           transform="translate(12,2)" />
      </g>
    </g>
  </g>
</svg>
